<svg xmlns="http://www.w3.org/2000/svg" viewBox="0 0 480 200" role="img" aria-label="LP10 Greenhouse-gas emissions, gross (annual)"><rect width="480" height="200" fill="#ffffff"/><text x="24" y="36" font-family="Georgia, serif" font-size="20" font-weight="700" fill="#000">LP10 · Greenhouse-gas emissions, gross (annual)</text><text x="24" y="64" font-family="Georgia, serif" font-size="14" fill="#000">Latest: 32479432.0</text><path d="M 24.0,175.2 L 31.3,174.0 L 38.6,175.4 L 46.0,176.0 L 53.3,173.0 L 60.6,173.3 L 67.9,170.0 L 75.3,165.6 L 82.6,157.9 L 89.9,155.7 L 97.2,157.6 L 104.5,153.9 L 111.9,149.8 L 119.2,158.6 L 126.5,164.4 L 133.8,160.6 L 141.2,164.2 L 148.5,157.6 L 155.8,158.7 L 163.1,153.5 L 170.4,143.9 L 177.8,139.7 L 185.1,135.0 L 192.4,130.1 L 199.7,130.1 L 207.1,130.0 L 214.4,127.4 L 221.7,119.8 L 229.0,121.3 L 236.3,120.8 L 243.7,120.4 L 251.0,115.4 L 258.3,107.8 L 265.6,113.3 L 272.9,107.2 L 280.3,104.2 L 287.6,96.0 L 294.9,95.4 L 302.2,88.9 L 309.6,90.4 L 316.9,84.3 L 324.2,84.7 L 331.5,88.2 L 338.8,84.0 L 346.2,95.1 L 353.5,94.3 L 360.8,96.4 L 368.1,90.0 L 375.5,92.7 L 382.8,92.0 L 390.1,90.4 L 397.4,96.8 L 404.7,91.0 L 412.1,90.9 L 419.4,87.0 L 426.7,96.9 L 434.0,95.1 L 441.4,105.1 L 448.7,106.7 L 456.0,103.2" fill="none" stroke="#000" stroke-width="2"/><text x="24" y="192" font-family="Georgia, serif" font-size="11" fill="#000" opacity="0.7">systems-observatory · kiwidialectic.com</text></svg>
