<svg xmlns="http://www.w3.org/2000/svg" viewBox="0 0 480 200" role="img" aria-label="LP11 New dwelling consents (monthly, seasonally adjusted)">
  <rect width="480" height="200" fill="#ffffff"/>
  <text x="24" y="36" font-family="Georgia, serif" font-size="20" font-weight="700" fill="#000">LP11 · New dwelling consents (monthly, seasonally adjusted)</text>
  <text x="24" y="64" font-family="Georgia, serif" font-size="14" fill="#000">Latest: 4168.0</text>
  <path d="M 24.0,147.2 L 27.6,146.3 L 31.3,145.9 L 34.9,151.7 L 38.5,152.7 L 42.2,140.3 L 45.8,162.0 L 49.4,176.0 L 53.0,157.5 L 56.7,144.8 L 60.3,165.7 L 63.9,143.0 L 67.6,150.9 L 71.2,145.9 L 74.8,135.5 L 78.5,147.7 L 82.1,152.0 L 85.7,133.8 L 89.3,164.0 L 93.0,170.9 L 96.6,158.2 L 100.2,142.6 L 103.9,148.2 L 107.5,127.2 L 111.1,147.0 L 114.8,147.7 L 118.4,139.0 L 122.0,152.4 L 125.6,142.3 L 129.3,135.4 L 132.9,157.9 L 136.5,156.7 L 140.2,139.8 L 143.8,136.8 L 147.4,151.0 L 151.1,121.3 L 154.7,143.4 L 158.3,128.7 L 161.9,133.9 L 165.6,132.2 L 169.2,130.0 L 172.8,135.3 L 176.5,143.4 L 180.1,154.5 L 183.7,135.5 L 187.4,145.4 L 191.0,165.9 L 194.6,129.3 L 198.3,129.7 L 201.9,132.8 L 205.5,139.9 L 209.1,128.0 L 212.8,126.5 L 216.4,119.6 L 220.0,124.5 L 223.7,145.0 L 227.3,140.9 L 230.9,110.5 L 234.6,118.3 L 238.2,110.8 L 241.8,108.8 L 245.4,111.5 L 249.1,104.7 L 252.7,104.5 L 256.3,117.5 L 260.0,99.1 L 263.6,115.2 L 267.2,150.5 L 270.9,113.3 L 274.5,84.0 L 278.1,126.3 L 281.7,104.0 L 285.4,117.8 L 289.0,117.0 L 292.6,103.8 L 296.3,105.2 L 299.9,131.1 L 303.5,103.5 L 307.2,134.1 L 310.8,153.4 L 314.4,147.2 L 318.1,120.9 L 321.7,152.8 L 325.3,126.3 L 328.9,136.2 L 332.6,145.5 L 336.2,141.0 L 339.8,149.2 L 343.5,144.5 L 347.1,146.5 L 350.7,160.7 L 354.4,173.5 L 358.0,151.7 L 361.6,148.7 L 365.2,149.1 L 368.9,140.2 L 372.5,168.0 L 376.1,137.2 L 379.8,149.0 L 383.4,147.9 L 387.0,150.1 L 390.7,144.0 L 394.3,161.2 L 397.9,168.2 L 401.5,158.1 L 405.2,136.8 L 408.8,161.2 L 412.4,141.5 L 416.1,156.6 L 419.7,140.3 L 423.3,144.4 L 427.0,126.6 L 430.6,133.4 L 434.2,132.7 L 437.8,144.1 L 441.5,159.0 L 445.1,142.9 L 448.7,127.9 L 452.4,128.9 L 456.0,124.7" fill="none" stroke="#000" stroke-width="2"/>
  <text x="24" y="192" font-family="Georgia, serif" font-size="11" fill="#000" opacity="0.7">systems-observatory · kiwidialectic.com</text>
</svg>
