<svg xmlns="http://www.w3.org/2000/svg" viewBox="0 0 480 200" role="img" aria-label="LP12 Official Cash Rate"><rect width="480" height="200" fill="#ffffff"/><text x="24" y="36" font-family="Georgia, serif" font-size="20" font-weight="700" fill="#000">LP12 · Official Cash Rate</text><text x="24" y="64" font-family="Georgia, serif" font-size="14" fill="#000">Latest: 2.5</text><path d="M 24.0,162.9 L 33.2,176.0 L 42.4,176.0 L 51.6,176.0 L 60.8,176.0 L 70.0,176.0 L 79.1,176.0 L 88.3,176.0 L 97.5,176.0 L 106.7,176.0 L 115.9,176.0 L 125.1,176.0 L 134.3,176.0 L 143.5,176.0 L 152.7,171.6 L 161.9,167.2 L 171.1,162.9 L 180.3,154.1 L 189.4,145.3 L 198.6,136.6 L 207.8,127.8 L 217.0,119.0 L 226.2,105.9 L 235.4,97.1 L 244.6,88.4 L 253.8,84.0 L 263.0,84.0 L 272.2,84.0 L 281.4,84.0 L 290.6,84.0 L 299.7,84.0 L 308.9,84.0 L 318.1,84.0 L 327.3,84.0 L 336.5,88.4 L 345.7,97.1 L 354.9,105.9 L 364.1,114.7 L 373.3,119.0 L 382.5,123.4 L 391.7,123.4 L 400.9,127.8 L 410.0,136.6 L 419.2,141.0 L 428.4,141.0 L 437.6,141.0 L 446.8,141.0 L 456.0,136.6" fill="none" stroke="#000" stroke-width="2"/><text x="24" y="192" font-family="Georgia, serif" font-size="11" fill="#000" opacity="0.7">systems-observatory · kiwidialectic.com</text></svg>
