<svg xmlns="http://www.w3.org/2000/svg" viewBox="0 0 480 200" role="img" aria-label="LP12 Official Cash Rate">
  <rect width="480" height="200" fill="#ffffff"/>
  <text x="24" y="36" font-family="Georgia, serif" font-size="20" font-weight="700" fill="#000">LP12 · Official Cash Rate</text>
  <text x="24" y="64" font-family="Georgia, serif" font-size="14" fill="#000">Latest: 2.5</text>
  <path d="M 24.0,120.0 L 27.6,120.3 L 31.2,120.0 L 34.8,119.6 L 38.4,120.1 L 42.0,122.9 L 45.6,126.0 L 49.2,128.9 L 52.8,131.3 L 56.4,132.7 L 60.0,133.2 L 63.6,134.9 L 67.2,137.6 L 70.8,138.0 L 74.4,140.7 L 78.0,141.4 L 81.6,141.6 L 85.2,141.6 L 88.8,142.4 L 92.4,143.3 L 96.0,145.7 L 99.6,146.4 L 103.2,148.8 L 106.8,149.8 L 110.4,150.1 L 114.0,149.3 L 117.6,150.1 L 121.2,150.8 L 124.8,150.0 L 128.4,149.3 L 132.0,150.6 L 135.6,150.3 L 139.2,150.5 L 142.8,151.0 L 146.4,150.5 L 150.0,150.0 L 153.6,150.1 L 157.2,150.0 L 160.8,150.0 L 164.4,149.3 L 168.0,148.9 L 171.6,149.6 L 175.2,150.0 L 178.8,149.3 L 182.4,149.8 L 186.0,149.8 L 189.6,149.1 L 193.2,149.1 L 196.8,150.0 L 200.4,148.9 L 204.0,148.9 L 207.6,149.4 L 211.2,152.7 L 214.8,153.7 L 218.4,154.1 L 222.0,159.7 L 225.6,162.1 L 229.2,162.0 L 232.8,161.6 L 236.4,162.3 L 240.0,162.8 L 243.6,162.6 L 247.2,169.0 L 250.8,174.1 L 254.4,174.3 L 258.0,174.6 L 261.6,175.0 L 265.2,176.0 L 268.8,174.1 L 272.4,175.0 L 276.0,174.8 L 279.6,174.6 L 283.2,174.5 L 286.8,174.5 L 290.4,174.6 L 294.0,174.5 L 297.6,174.8 L 301.2,174.6 L 304.8,174.6 L 308.4,175.0 L 312.0,175.1 L 315.6,172.1 L 319.2,169.3 L 322.8,166.4 L 326.4,167.1 L 330.0,166.1 L 333.6,162.5 L 337.2,157.3 L 340.8,152.4 L 344.4,145.0 L 348.0,140.9 L 351.6,130.9 L 355.2,128.9 L 358.8,122.2 L 362.4,117.8 L 366.0,107.0 L 369.6,106.4 L 373.2,106.6 L 376.8,97.2 L 380.4,92.7 L 384.0,87.1 L 387.6,86.1 L 391.2,84.9 L 394.8,85.9 L 398.4,86.2 L 402.0,86.1 L 405.6,85.5 L 409.2,86.9 L 412.8,84.0 L 416.4,85.5 L 420.0,86.4 L 423.6,84.9 L 427.2,84.3 L 430.8,84.0 L 434.4,84.5 L 438.0,85.2 L 441.6,89.3 L 445.2,96.8 L 448.8,96.5 L 452.4,104.4 L 456.0,135.7" fill="none" stroke="#000" stroke-width="2"/>
  <text x="24" y="192" font-family="Georgia, serif" font-size="11" fill="#000" opacity="0.7">systems-observatory · kiwidialectic.com</text>
</svg>
