<svg xmlns="http://www.w3.org/2000/svg" viewBox="0 0 480 200" role="img" aria-label="LP5 People receiving Jobseeker Support">
  <rect width="480" height="200" fill="#ffffff"/>
  <text x="24" y="36" font-family="Georgia, serif" font-size="20" font-weight="700" fill="#000">LP5 · People receiving Jobseeker Support</text>
  <text x="24" y="64" font-family="Georgia, serif" font-size="14" fill="#000">Latest: 5.3</text>
  <path d="M 24.0,96.5 L 35.1,100.7 L 46.2,88.2 L 57.2,104.9 L 68.3,104.9 L 79.4,113.3 L 90.5,121.6 L 101.5,125.8 L 112.6,117.5 L 123.7,142.5 L 134.8,130.0 L 145.8,134.2 L 156.9,138.4 L 168.0,138.4 L 179.1,138.4 L 190.2,134.2 L 201.2,138.4 L 212.3,92.4 L 223.4,104.9 L 234.5,117.5 L 245.5,142.5 L 256.6,171.8 L 267.7,176.0 L 278.8,171.8 L 289.8,171.8 L 300.9,171.8 L 312.0,167.6 L 323.1,163.5 L 334.2,155.1 L 345.2,146.7 L 356.3,142.5 L 367.4,125.8 L 378.5,113.3 L 389.5,104.9 L 400.6,96.5 L 411.7,96.5 L 422.8,92.4 L 433.8,88.2 L 444.9,84.0 L 456.0,88.2" fill="none" stroke="#000" stroke-width="2"/>
  <text x="24" y="192" font-family="Georgia, serif" font-size="11" fill="#000" opacity="0.7">systems-observatory · kiwidialectic.com</text>
</svg>
